<!--
The MIT License (MIT)

Copyright (c) 2019-2024 The Bootstrap Authors

Permission is hereby granted, free of charge, to any person obtaining a copy
of this software and associated documentation files (the "Software"), to deal
in the Software without restriction, including without limitation the rights
to use, copy, modify, merge, publish, distribute, sublicense, and/or sell
copies of the Software, and to permit persons to whom the Software is
furnished to do so, subject to the following conditions:

The above copyright notice and this permission notice shall be included in
all copies or substantial portions of the Software.

THE SOFTWARE IS PROVIDED "AS IS", WITHOUT WARRANTY OF ANY KIND, EXPRESS OR
IMPLIED, INCLUDING BUT NOT LIMITED TO THE WARRANTIES OF MERCHANTABILITY,
FITNESS FOR A PARTICULAR PURPOSE AND NONINFRINGEMENT. IN NO EVENT SHALL THE
AUTHORS OR COPYRIGHT HOLDERS BE LIABLE FOR ANY CLAIM, DAMAGES OR OTHER
LIABILITY, WHETHER IN AN ACTION OF CONTRACT, TORT OR OTHERWISE, ARISING FROM,
OUT OF OR IN CONNECTION WITH THE SOFTWARE OR THE USE OR OTHER DEALINGS IN
THE SOFTWARE.

-->
<svg xmlns="http://www.w3.org/2000/svg" fill="currentColor" class="bi bi-bricks" viewBox="0 0 16 16"><path d="M0 .5A.5.5 0 0 1 .5 0h15a.5.5 0 0 1 .5.5v3a.5.5 0 0 1-.5.5H14v2h1.5a.5.5 0 0 1 .5.5v3a.5.5 0 0 1-.5.5H14v2h1.5a.5.5 0 0 1 .5.5v3a.5.5 0 0 1-.5.5H.5a.5.5 0 0 1-.5-.5v-3a.5.5 0 0 1 .5-.5H2v-2H.5a.5.5 0 0 1-.5-.5v-3A.5.5 0 0 1 .5 6H2V4H.5a.5.5 0 0 1-.5-.5zM3 4v2h4.5V4zm5.5 0v2H13V4zM3 10v2h4.5v-2zm5.5 0v2H13v-2zM1 1v2h3.5V1zm4.5 0v2h5V1zm6 0v2H15V1zM1 7v2h3.5V7zm4.5 0v2h5V7zm6 0v2H15V7zM1 13v2h3.5v-2zm4.5 0v2h5v-2zm6 0v2H15v-2z"/></svg>